<svg width="96" height="96" viewBox="0 0 96 96" fill="none" xmlns="http://www.w3.org/2000/svg">
  <rect x="8" y="18" width="80" height="62" rx="18" fill="#EFF6FF"/>
  <path d="M24 69V39C24 34.5817 27.5817 31 32 31H64C68.4183 31 72 34.5817 72 39V69" stroke="#2563EB" stroke-width="6" stroke-linecap="round"/>
  <path d="M39 31V24C39 19.5817 42.5817 16 47 16H49C53.4183 16 57 19.5817 57 24V31" stroke="#22C55E" stroke-width="6" stroke-linecap="round"/>
  <path d="M34 51H62" stroke="#F97316" stroke-width="6" stroke-linecap="round"/>
  <circle cx="48" cy="51" r="18" fill="#DBEAFE" fill-opacity="0.65"/>
  <circle cx="48" cy="47" r="6" stroke="#2563EB" stroke-width="4"/>
  <path d="M38 61C40.4779 57.9505 43.9762 56 48 56C52.0238 56 55.5221 57.9505 58 61" stroke="#2563EB" stroke-width="4" stroke-linecap="round"/>
</svg>
